<svg width="400" height="400" viewBox="0 0 400 400" fill="none" xmlns="http://www.w3.org/2000/svg">
<g clip-path="url(#clip0_201_2)">
<g opacity="0.3" filter="url(#filter0_f_201_2)">
<ellipse cx="168" cy="238" rx="100" ry="150" fill="#FE5493"/>
</g>
<g opacity="0.3" filter="url(#filter1_f_201_2)">
<ellipse cx="256.5" cy="159" rx="74.5" ry="112" fill="#F96D69"/>
</g>
<g style="mix-blend-mode:plus-lighter" opacity="0.5">
<circle cx="111.605" cy="396.416" r="3.35531" transform="rotate(90 111.605 396.416)" fill="white"/>
<circle cx="128.395" cy="350.106" r="2.68425" transform="rotate(90 128.395 350.106)" fill="white"/>
<circle opacity="0.5" cx="119.53" cy="285.684" r="2.68425" transform="rotate(90 119.53 285.684)" fill="white"/>
<circle cx="138.927" cy="321.915" r="1.34212" transform="rotate(90 138.927 321.915)" fill="white"/>
<circle opacity="0.3" cx="149.67" cy="362.185" r="1.34212" transform="rotate(90 149.67 362.185)" fill="white"/>
<circle opacity="0.5" cx="179.184" cy="346.078" r="1.34212" transform="rotate(90 179.184 346.078)" fill="white"/>
<circle opacity="0.5" cx="161.065" cy="306.486" r="0.671062" transform="rotate(90 161.065 306.486)" fill="white"/>
<circle opacity="0.2" cx="201.329" cy="326.62" r="0.671062" transform="rotate(90 201.329 326.62)" fill="white"/>
</g>
<g style="mix-blend-mode:plus-lighter" opacity="0.5">
<circle cx="304.395" cy="3.35532" r="3.35531" transform="rotate(-90 304.395 3.35532)" fill="white"/>
<circle cx="287.605" cy="49.6655" r="2.68425" transform="rotate(-90 287.605 49.6655)" fill="white"/>
<circle opacity="0.5" cx="296.47" cy="114.087" r="2.68425" transform="rotate(-90 296.47 114.087)" fill="white"/>
<circle cx="277.073" cy="77.8558" r="1.34212" transform="rotate(-90 277.073 77.8558)" fill="white"/>
<circle opacity="0.3" cx="266.33" cy="37.5864" r="1.34212" transform="rotate(-90 266.33 37.5864)" fill="white"/>
<circle opacity="0.5" cx="236.816" cy="53.6934" r="1.34212" transform="rotate(-90 236.816 53.6934)" fill="white"/>
<circle opacity="0.5" cx="254.935" cy="93.2854" r="0.671062" transform="rotate(-90 254.935 93.2854)" fill="white"/>
<circle opacity="0.2" cx="214.671" cy="73.1513" r="0.671062" transform="rotate(-90 214.671 73.1513)" fill="white"/>
</g>
<path d="M200 0L300 200H100L200 0Z" fill="url(#paint0_linear_201_2)"/>
<path d="M200 0L300 200H100L200 0Z" fill="url(#paint1_linear_201_2)"/>
<path d="M200 400L100 200L300 200L200 400Z" fill="url(#paint2_linear_201_2)"/>
<path d="M200 400L100 200L300 200L200 400Z" fill="url(#paint3_linear_201_2)"/>
<path d="M200 0L250 200H150L200 0Z" fill="url(#paint4_linear_201_2)"/>
<path d="M200 400L150 200L250 200L200 400Z" fill="url(#paint5_linear_201_2)"/>
<path opacity="0.45" fill-rule="evenodd" clip-rule="evenodd" d="M200 200L300 200L200 0V200Z" fill="url(#paint6_linear_201_2)"/>
<path opacity="0.45" fill-rule="evenodd" clip-rule="evenodd" d="M200 200L100 200L200 400L200 200Z" fill="url(#paint7_linear_201_2)"/>
</g>
<defs>
<filter id="filter0_f_201_2" x="-7" y="13" width="350" height="450" filterUnits="userSpaceOnUse" color-interpolation-filters="sRGB">
<feFlood flood-opacity="0" result="BackgroundImageFix"/>
<feBlend mode="normal" in="SourceGraphic" in2="BackgroundImageFix" result="shape"/>
<feGaussianBlur stdDeviation="37.5" result="effect1_foregroundBlur_201_2"/>
</filter>
<filter id="filter1_f_201_2" x="129.5" y="-5.5" width="254" height="329" filterUnits="userSpaceOnUse" color-interpolation-filters="sRGB">
<feFlood flood-opacity="0" result="BackgroundImageFix"/>
<feBlend mode="normal" in="SourceGraphic" in2="BackgroundImageFix" result="shape"/>
<feGaussianBlur stdDeviation="26.25" result="effect1_foregroundBlur_201_2"/>
</filter>
<linearGradient id="paint0_linear_201_2" x1="200" y1="0" x2="200" y2="200" gradientUnits="userSpaceOnUse">
<stop stop-color="#FFA3A0"/>
<stop offset="1" stop-color="#FE5493"/>
</linearGradient>
<linearGradient id="paint1_linear_201_2" x1="200" y1="0" x2="200" y2="200" gradientUnits="userSpaceOnUse">
<stop stop-color="#FE5493" stop-opacity="0"/>
<stop offset="1" stop-color="#F3005A"/>
</linearGradient>
<linearGradient id="paint2_linear_201_2" x1="200" y1="400" x2="200" y2="200" gradientUnits="userSpaceOnUse">
<stop stop-color="#FFA3A0"/>
<stop offset="1" stop-color="#FE5493"/>
</linearGradient>
<linearGradient id="paint3_linear_201_2" x1="200" y1="400" x2="200" y2="200" gradientUnits="userSpaceOnUse">
<stop stop-color="#FE5493" stop-opacity="0"/>
<stop offset="1" stop-color="#F3005A"/>
</linearGradient>
<linearGradient id="paint4_linear_201_2" x1="200" y1="0" x2="200" y2="200" gradientUnits="userSpaceOnUse">
<stop offset="0.445" stop-color="#FF3580"/>
<stop offset="1" stop-color="#F96D69"/>
</linearGradient>
<linearGradient id="paint5_linear_201_2" x1="200" y1="400" x2="200" y2="200" gradientUnits="userSpaceOnUse">
<stop offset="0.445" stop-color="#FF3580"/>
<stop offset="1" stop-color="#F96D69"/>
</linearGradient>
<linearGradient id="paint6_linear_201_2" x1="200" y1="200" x2="300" y2="100" gradientUnits="userSpaceOnUse">
<stop stop-color="white"/>
<stop offset="1" stop-color="white" stop-opacity="0"/>
</linearGradient>
<linearGradient id="paint7_linear_201_2" x1="200" y1="200" x2="100" y2="300" gradientUnits="userSpaceOnUse">
<stop stop-color="white"/>
<stop offset="1" stop-color="white" stop-opacity="0"/>
</linearGradient>
<clipPath id="clip0_201_2">
<rect width="400" height="400" fill="white"/>
</clipPath>
</defs>
</svg>
