<svg width="168" height="168" viewBox="0 0 168 168" fill="none" xmlns="http://www.w3.org/2000/svg">
<rect width="168" height="168" rx="12" fill="#F3F4F6"/>
<path d="M70 65H98" stroke="#9CA3AF" stroke-width="4" stroke-linecap="round"/>
<path d="M84 79V51" stroke="#9CA3AF" stroke-width="4" stroke-linecap="round"/>
<path d="M59.0156 107.375V121.297H57.7812V107.375H59.0156ZM48.0781 113.297C48.0859 110.344 49.5547 108.461 51.625 108.453C53.6875 108.461 55.1797 110.344 55.1719 113.297C55.1797 116.258 53.6875 118.133 51.625 118.125C49.5547 118.133 48.0859 116.258 48.0781 113.297ZM49.2656 113.297C49.2656 115.555 50.2344 117.039 51.625 117.031C53.0234 117.039 53.9844 115.555 53.9844 113.297C53.9844 111.039 53.0234 109.555 51.625 109.547C50.2344 109.555 49.2656 111.039 49.2656 113.297ZM68.625 108.75V117.781H62.2031V108.75H68.625ZM63.4062 116.781H67.4219V109.734H63.4062V116.781ZM71.6094 121.297V107.375H72.8438V121.297H71.6094ZM80.1875 111.641C80.1953 114 81.9062 116.398 83.9531 117.281L83.2656 118.25C81.6406 117.516 80.2422 115.914 79.5938 113.992C78.9453 116.031 77.5391 117.797 75.9531 118.594L75.2188 117.625C77.2109 116.672 78.9453 114.047 78.9531 111.641V109.828H75.6719V108.812H83.5V109.828H80.1875V111.641ZM85.4375 121.266V107.375H86.6719V121.266H85.4375ZM105.734 113.984V115.016H93.0625V113.984H105.734ZM94.5938 118.734C94.5859 117.141 96.3906 116.234 99.3906 116.234C102.367 116.234 104.156 117.141 104.172 118.734C104.156 120.344 102.367 121.234 99.3906 121.234C96.3906 121.234 94.5859 120.344 94.5938 118.734ZM94.6719 112.656V107.938H104.156V108.969H95.875V111.656H104.25V112.656H94.6719ZM95.8438 118.734C95.8281 119.711 97.1641 120.266 99.3906 120.266C101.594 120.266 102.93 119.711 102.938 118.734C102.93 117.766 101.594 117.203 99.3906 117.188C97.1641 117.203 95.8281 117.766 95.8438 118.734ZM119.594 115.031V116.047H106.875V115.031H112.625V113.562H108.531V110.172H116.719V108.734H108.484V107.734H117.953V111.094H109.75V112.578H118.25V113.562H113.828V115.031H119.594ZM108.297 118.109V117.109H118.031V121.141H116.797V118.109H108.297Z" fill="#9CA3AF"/>
</svg>
